# xmcd CD database file
#
# Track frame offsets:
#	182
#	20480
#	43390
#	63922
#	81082
#	101047
#	116740
#	137387
#
# Disc length: 2086 seconds
#
# Revision: 0
# Processed by: cddbd v1.5.1PL2 Copyright (c) Steve Scherf et al.
# Submitted via: CDex 1.50Beta3
#
DISCID=68082408
DTITLE=Eddie Santiago - Soy El Mismo I'm Still The Same
DYEAR=1995
DGENRE=Salsa
TTITLE0=Me Faltas Tu
TTITLE1=Yo Queria Ser Fiel
TTITLE2=Bella Y Cruel
TTITLE3=A Escondidas De Todos
TTITLE4=Hasta Aqui Te Fui Fiel
TTITLE5=Te Amo, Te Amo
TTITLE6=Deseos
TTITLE7=Soy El Mismo
EXTD=YEAR: 1995
EXTT0=
EXTT1=
EXTT2=
EXTT3=
EXTT4=
EXTT5=
EXTT6=
EXTT7=
PLAYORDER=
